<mxfile host="65bd71144e">
    <diagram id="ueN_HZXEKhYHcW-hgPai" name="Page-1">
        <mxGraphModel dx="2527" dy="2834" grid="1" gridSize="10" guides="1" tooltips="1" connect="1" arrows="1" fold="1" page="1" pageScale="1" pageWidth="827" pageHeight="1169" math="0" shadow="0">
            <root>
                <mxCell id="0"/>
                <mxCell id="1" parent="0"/>
                <mxCell id="154" value="" style="rounded=0;whiteSpace=wrap;html=1;labelBackgroundColor=none;fillStyle=auto;strokeWidth=7;fontFamily=Helvetica;fontSize=16;fillColor=#fff2cc;strokeColor=#d6b656;movable=0;resizable=0;rotatable=0;deletable=0;editable=0;connectable=0;" parent="1" vertex="1">
                    <mxGeometry x="-660" y="-500" width="1930" height="440" as="geometry"/>
                </mxCell>
                <mxCell id="136" value="" style="rounded=0;whiteSpace=wrap;html=1;labelBackgroundColor=none;fillStyle=auto;strokeWidth=7;fontFamily=Helvetica;fontSize=16;fillColor=#cce5ff;strokeColor=#36393d;movable=0;resizable=0;rotatable=0;deletable=0;editable=0;connectable=0;" parent="1" vertex="1">
                    <mxGeometry x="-670" y="-20" width="1950" height="800" as="geometry"/>
                </mxCell>
                <mxCell id="58" value="" style="group;labelBackgroundColor=none;fillColor=none;fontColor=#000000;" parent="1" vertex="1" connectable="0">
                    <mxGeometry x="-510" y="505" width="540" height="205" as="geometry"/>
                </mxCell>
                <mxCell id="49" value="" style="rounded=0;whiteSpace=wrap;html=1;labelBackgroundColor=#171617;fillStyle=auto;strokeWidth=7;fontSize=16;fillColor=#bac8d3;strokeColor=#23445d;" parent="58" vertex="1">
                    <mxGeometry x="25" y="21.578947368421055" width="515" height="183.42105263157896" as="geometry"/>
                </mxCell>
                <mxCell id="51" value="" style="sketch=0;aspect=fixed;html=1;points=[];align=center;image;fontSize=12;image=img/lib/mscae/Event_Hub_Clusters.svg;labelBackgroundColor=#171617;fillStyle=auto;strokeWidth=7;fontColor=#f3ecec;fillColor=none;" parent="58" vertex="1">
                    <mxGeometry x="240" y="58.80263157894737" width="65.63" height="63" as="geometry"/>
                </mxCell>
                <mxCell id="53" value="&lt;span style=&quot;color: rgba(0, 0, 0, 0); font-family: monospace; font-size: 0px; text-align: start; background-color: rgb(42, 37, 47);&quot;&gt;%3CmxGraphModel%3E%3Croot%3E%3CmxCell%20id%3D%220%22%2F%3E%3CmxCell%20id%3D%221%22%20parent%3D%220%22%2F%3E%3CmxCell%20id%3D%222%22%20value%3D%22%22%20style%3D%22sketch%3D0%3Baspect%3Dfixed%3Bhtml%3D1%3Bpoints%3D%5B%5D%3Balign%3Dcenter%3Bimage%3BfontSize%3D12%3Bimage%3Dimg%2Flib%2Fmscae%2FEvent_Hub_Clusters.svg%3BlabelBackgroundColor%3D%23171617%3BfillStyle%3Dauto%3BstrokeWidth%3D7%3BfontColor%3D%23f3ecec%3BfillColor%3Dnone%3B%22%20vertex%3D%221%22%20parent%3D%221%22%3E%3CmxGeometry%20x%3D%22-40%22%20y%3D%22120%22%20width%3D%2250%22%20height%3D%2248%22%20as%3D%22geometry%22%2F%3E%3C%2FmxCell%3E%3C%2Froot%3E%3C%2FmxGraphModel%3E&lt;/span&gt;" style="sketch=0;aspect=fixed;html=1;points=[];align=center;image;fontSize=12;image=img/lib/mscae/ResourceGroup.svg;labelBackgroundColor=#171617;fillStyle=auto;strokeWidth=7;fontColor=#f3ecec;fillColor=none;" parent="58" vertex="1">
                    <mxGeometry width="50" height="40" as="geometry"/>
                </mxCell>
                <mxCell id="54" value="&lt;font style=&quot;font-size: 16px;&quot;&gt;Log-Storage&lt;/font&gt;" style="text;html=1;strokeColor=none;fillColor=none;align=center;verticalAlign=middle;whiteSpace=wrap;rounded=0;labelBackgroundColor=none;fillStyle=auto;strokeWidth=7;fontFamily=Helvetica;fontSize=12;fontColor=#000000;" parent="58" vertex="1">
                    <mxGeometry x="36.5" y="132.71052631578948" width="112" height="32.36842105263158" as="geometry"/>
                </mxCell>
                <mxCell id="55" value="&lt;span style=&quot;font-size: 16px;&quot;&gt;Monitoring Event Hubs&lt;/span&gt;" style="text;html=1;strokeColor=none;fillColor=none;align=center;verticalAlign=middle;whiteSpace=wrap;rounded=0;labelBackgroundColor=none;fillStyle=auto;strokeWidth=7;fontFamily=Helvetica;fontSize=12;fontColor=#000000;" parent="58" vertex="1">
                    <mxGeometry x="187.18" y="132.71052631578948" width="171.28" height="32.36842105263158" as="geometry"/>
                </mxCell>
                <mxCell id="56" value="&lt;font style=&quot;font-size: 16px;&quot;&gt;Key Vaults&lt;/font&gt;" style="text;html=1;strokeColor=none;fillColor=none;align=center;verticalAlign=middle;whiteSpace=wrap;rounded=0;labelBackgroundColor=none;fillStyle=auto;strokeWidth=7;fontFamily=Helvetica;fontSize=12;fontColor=#000000;" parent="58" vertex="1">
                    <mxGeometry x="400" y="135.94736842105263" width="112" height="32.36842105263158" as="geometry"/>
                </mxCell>
                <mxCell id="57" value="&lt;font style=&quot;font-size: 16px;&quot;&gt;logging-monitoring-rg&lt;/font&gt;" style="text;html=1;strokeColor=none;fillColor=none;align=center;verticalAlign=middle;whiteSpace=wrap;rounded=0;labelBackgroundColor=none;fillStyle=auto;strokeWidth=7;fontFamily=Helvetica;fontSize=12;fontColor=#000000;" parent="58" vertex="1">
                    <mxGeometry x="183.41" y="165.07894736842107" width="173.18" height="32.36842105263158" as="geometry"/>
                </mxCell>
                <mxCell id="97" value="" style="aspect=fixed;html=1;points=[];align=center;image;fontSize=12;image=img/lib/azure2/storage/Storage_Accounts.svg;rounded=0;labelBackgroundColor=#171617;fillStyle=auto;strokeColor=#23445d;strokeWidth=7;fontFamily=Helvetica;fontColor=#000000;fillColor=#bac8d3;" parent="58" vertex="1">
                    <mxGeometry x="61" y="64.73684210526316" width="65" height="52" as="geometry"/>
                </mxCell>
                <mxCell id="102" value="" style="aspect=fixed;html=1;points=[];align=center;image;fontSize=12;image=img/lib/azure2/security/Key_Vaults.svg;rounded=0;labelBackgroundColor=#171617;fillStyle=auto;strokeColor=#23445d;strokeWidth=7;fontFamily=Helvetica;fontColor=#000000;fillColor=#bac8d3;" parent="58" vertex="1">
                    <mxGeometry x="422" y="56.10526315789474" width="68" height="68" as="geometry"/>
                </mxCell>
                <mxCell id="93" value="" style="group" parent="1" vertex="1" connectable="0">
                    <mxGeometry x="-510" y="70" width="653.75" height="280" as="geometry"/>
                </mxCell>
                <mxCell id="69" value="" style="rounded=0;whiteSpace=wrap;html=1;labelBackgroundColor=#171617;fillStyle=auto;strokeWidth=7;fontSize=16;fillColor=#bac8d3;strokeColor=#23445d;" parent="93" vertex="1">
                    <mxGeometry x="26.25" y="20" width="627.5" height="260" as="geometry"/>
                </mxCell>
                <mxCell id="80" value="&lt;font style=&quot;font-size: 16px;&quot;&gt;storage-rg&lt;/font&gt;" style="text;html=1;strokeColor=none;fillColor=none;align=center;verticalAlign=middle;whiteSpace=wrap;rounded=0;labelBackgroundColor=none;fillStyle=auto;strokeWidth=7;fontFamily=Helvetica;fontSize=12;fontColor=#000000;" parent="93" vertex="1">
                    <mxGeometry x="253.40999999999997" y="240" width="173.18" height="30" as="geometry"/>
                </mxCell>
                <mxCell id="81" value="" style="rounded=0;whiteSpace=wrap;html=1;labelBackgroundColor=#171617;fillStyle=auto;strokeWidth=7;fontSize=16;fillColor=#bac8d3;strokeColor=#23445d;" parent="93" vertex="1">
                    <mxGeometry x="58.129999999999995" y="40" width="563.75" height="200" as="geometry"/>
                </mxCell>
                <mxCell id="83" value="&lt;font color=&quot;#050505&quot; style=&quot;font-size: 16px;&quot;&gt;data-lake&lt;/font&gt;" style="text;html=1;strokeColor=none;fillColor=none;align=center;verticalAlign=middle;whiteSpace=wrap;rounded=0;labelBackgroundColor=none;fillStyle=auto;strokeWidth=7;fontFamily=Helvetica;fontSize=12;fontColor=#f3ecec;" parent="93" vertex="1">
                    <mxGeometry x="253.40999999999997" y="200" width="173.18" height="30" as="geometry"/>
                </mxCell>
                <mxCell id="50" value="&lt;span style=&quot;color: rgba(0, 0, 0, 0); font-family: monospace; font-size: 0px; text-align: start; background-color: rgb(42, 37, 47);&quot;&gt;%3CmxGraphModel%3E%3Croot%3E%3CmxCell%20id%3D%220%22%2F%3E%3CmxCell%20id%3D%221%22%20parent%3D%220%22%2F%3E%3CmxCell%20id%3D%222%22%20value%3D%22%26lt%3Bfont%20style%3D%26quot%3Bfont-size%3A%2016px%3B%26quot%3B%26gt%3Bstorage-rg%26lt%3B%2Ffont%26gt%3B%22%20style%3D%22text%3Bhtml%3D1%3BstrokeColor%3Dnone%3BfillColor%3Dnone%3Balign%3Dcenter%3BverticalAlign%3Dmiddle%3BwhiteSpace%3Dwrap%3Brounded%3D0%3BlabelBackgroundColor%3D%23171617%3BfillStyle%3Dauto%3BstrokeWidth%3D7%3BfontFamily%3DHelvetica%3BfontSize%3D12%3BfontColor%3D%23f3ecec%3B%22%20vertex%3D%221%22%20parent%3D%221%22%3E%3CmxGeometry%20x%3D%22-256.59000000000003%22%20y%3D%22390%22%20width%3D%22173.18%22%20height%3D%2230%22%20as%3D%22geometry%22%2F%3E%3C%2FmxCell%3E%3C%2Froot%3E%3C%2FmxGraphModel%3E&lt;/span&gt;" style="aspect=fixed;html=1;points=[];align=center;image;fontSize=12;image=img/lib/azure2/storage/Storage_Accounts.svg;labelBackgroundColor=#171617;fillStyle=auto;strokeWidth=7;fontColor=#f3ecec;fillColor=none;" parent="93" vertex="1">
                    <mxGeometry x="307.5" y="140" width="65" height="52" as="geometry"/>
                </mxCell>
                <mxCell id="89" value="" style="group" parent="93" vertex="1" connectable="0">
                    <mxGeometry x="125" y="60" width="430" height="50" as="geometry"/>
                </mxCell>
                <mxCell id="84" value="&lt;font color=&quot;#050505&quot; style=&quot;font-size: 16px;&quot;&gt;Bronze&lt;/font&gt;" style="rounded=0;whiteSpace=wrap;html=1;labelBackgroundColor=none;fillStyle=auto;strokeWidth=7;fontFamily=Helvetica;fontSize=12;fontColor=#f3ecec;fillColor=none;gradientColor=none;" parent="89" vertex="1">
                    <mxGeometry width="90" height="50" as="geometry"/>
                </mxCell>
                <mxCell id="85" value="&lt;font color=&quot;#000000&quot; style=&quot;font-size: 16px;&quot;&gt;Silver&lt;/font&gt;" style="rounded=0;whiteSpace=wrap;html=1;labelBackgroundColor=none;fillStyle=auto;strokeWidth=7;fontFamily=Helvetica;fontSize=12;fontColor=#f3ecec;fillColor=none;gradientColor=none;" parent="89" vertex="1">
                    <mxGeometry x="170" width="90" height="50" as="geometry"/>
                </mxCell>
                <mxCell id="87" value="&lt;font color=&quot;#000000&quot; style=&quot;font-size: 16px;&quot;&gt;Gold&lt;/font&gt;" style="rounded=0;whiteSpace=wrap;html=1;labelBackgroundColor=none;fillStyle=auto;strokeWidth=7;fontFamily=Helvetica;fontSize=12;fontColor=#f3ecec;fillColor=none;gradientColor=none;" parent="89" vertex="1">
                    <mxGeometry x="340" width="90" height="50" as="geometry"/>
                </mxCell>
                <mxCell id="86" value="" style="edgeStyle=none;html=1;fontFamily=Helvetica;fontSize=12;fontColor=#f3ecec;" parent="89" source="84" target="85" edge="1">
                    <mxGeometry relative="1" as="geometry"/>
                </mxCell>
                <mxCell id="88" value="" style="edgeStyle=none;html=1;fontFamily=Helvetica;fontSize=12;fontColor=#f3ecec;" parent="89" source="85" target="87" edge="1">
                    <mxGeometry relative="1" as="geometry"/>
                </mxCell>
                <mxCell id="90" value="&lt;font style=&quot;font-size: 16px;&quot;&gt;Data Products&lt;/font&gt;" style="rounded=0;whiteSpace=wrap;html=1;labelBackgroundColor=none;fillStyle=auto;strokeWidth=7;fontFamily=Helvetica;fontSize=12;fillColor=none;fontColor=#0d0c0c;" parent="93" vertex="1">
                    <mxGeometry x="465" y="160" width="90" height="50" as="geometry"/>
                </mxCell>
                <mxCell id="91" value="&lt;font color=&quot;#050505&quot; style=&quot;font-size: 16px;&quot;&gt;Workspaces&lt;/font&gt;" style="rounded=0;whiteSpace=wrap;html=1;labelBackgroundColor=none;fillStyle=auto;strokeWidth=7;fontFamily=Helvetica;fontSize=12;fontColor=#f3ecec;fillColor=none;gradientColor=none;" parent="93" vertex="1">
                    <mxGeometry x="125" y="160" width="105" height="50" as="geometry"/>
                </mxCell>
                <mxCell id="92" value="&lt;span style=&quot;color: rgba(0, 0, 0, 0); font-family: monospace; font-size: 0px; text-align: start; background-color: rgb(42, 37, 47);&quot;&gt;%3CmxGraphModel%3E%3Croot%3E%3CmxCell%20id%3D%220%22%2F%3E%3CmxCell%20id%3D%221%22%20parent%3D%220%22%2F%3E%3CmxCell%20id%3D%222%22%20value%3D%22%22%20style%3D%22sketch%3D0%3Baspect%3Dfixed%3Bhtml%3D1%3Bpoints%3D%5B%5D%3Balign%3Dcenter%3Bimage%3BfontSize%3D12%3Bimage%3Dimg%2Flib%2Fmscae%2FEvent_Hub_Clusters.svg%3BlabelBackgroundColor%3D%23171617%3BfillStyle%3Dauto%3BstrokeWidth%3D7%3BfontColor%3D%23f3ecec%3BfillColor%3Dnone%3B%22%20vertex%3D%221%22%20parent%3D%221%22%3E%3CmxGeometry%20x%3D%22-40%22%20y%3D%22120%22%20width%3D%2250%22%20height%3D%2248%22%20as%3D%22geometry%22%2F%3E%3C%2FmxCell%3E%3C%2Froot%3E%3C%2FmxGraphModel%3E&lt;/span&gt;" style="sketch=0;aspect=fixed;html=1;points=[];align=center;image;fontSize=12;image=img/lib/mscae/ResourceGroup.svg;labelBackgroundColor=#171617;fillStyle=auto;strokeWidth=7;fontColor=#f3ecec;fillColor=none;" parent="93" vertex="1">
                    <mxGeometry width="50" height="40" as="geometry"/>
                </mxCell>
                <mxCell id="103" value="" style="group" parent="1" vertex="1" connectable="0">
                    <mxGeometry x="210" y="70" width="531.88" height="190" as="geometry"/>
                </mxCell>
                <mxCell id="107" value="" style="group" parent="103" vertex="1" connectable="0">
                    <mxGeometry width="410" height="190" as="geometry"/>
                </mxCell>
                <mxCell id="94" value="" style="rounded=0;whiteSpace=wrap;html=1;labelBackgroundColor=#171617;fillStyle=auto;strokeWidth=7;fontSize=16;fillColor=#bac8d3;strokeColor=#23445d;" parent="107" vertex="1">
                    <mxGeometry x="16.88" y="10" width="393.12" height="180" as="geometry"/>
                </mxCell>
                <mxCell id="95" value="&lt;span style=&quot;font-size: 16px;&quot;&gt;data-synapse-rg&lt;/span&gt;" style="text;html=1;strokeColor=none;fillColor=none;align=center;verticalAlign=middle;whiteSpace=wrap;rounded=0;labelBackgroundColor=none;fillStyle=auto;strokeWidth=7;fontFamily=Helvetica;fontSize=12;fontColor=#000000;" parent="107" vertex="1">
                    <mxGeometry x="126.85" y="149" width="173.18" height="30" as="geometry"/>
                </mxCell>
                <mxCell id="96" value="" style="aspect=fixed;html=1;points=[];align=center;image;fontSize=12;image=img/lib/azure2/databases/Azure_Synapse_Analytics.svg;rounded=0;labelBackgroundColor=#171617;fillStyle=auto;strokeWidth=7;fontFamily=Helvetica;fontColor=#f3ecec;fillColor=none;gradientColor=none;" parent="107" vertex="1">
                    <mxGeometry x="100" y="50" width="60" height="69" as="geometry"/>
                </mxCell>
                <mxCell id="98" value="" style="aspect=fixed;html=1;points=[];align=center;image;fontSize=12;image=img/lib/azure2/security/Key_Vaults.svg;rounded=0;labelBackgroundColor=#171617;fillStyle=auto;strokeColor=#23445d;strokeWidth=7;fontFamily=Helvetica;fontColor=#000000;fillColor=#bac8d3;" parent="107" vertex="1">
                    <mxGeometry x="260" y="57" width="68" height="68" as="geometry"/>
                </mxCell>
                <mxCell id="99" value="Synapse Analytics" style="text;html=1;strokeColor=none;fillColor=none;align=center;verticalAlign=middle;whiteSpace=wrap;rounded=0;labelBackgroundColor=none;fillStyle=auto;strokeWidth=7;fontFamily=Helvetica;fontSize=16;fontColor=#000000;" parent="107" vertex="1">
                    <mxGeometry x="60" y="119" width="140" height="30" as="geometry"/>
                </mxCell>
                <mxCell id="100" value="Key Vaults" style="text;html=1;strokeColor=none;fillColor=none;align=center;verticalAlign=middle;whiteSpace=wrap;rounded=0;labelBackgroundColor=none;fillStyle=auto;strokeWidth=7;fontFamily=Helvetica;fontSize=16;fontColor=#000000;" parent="107" vertex="1">
                    <mxGeometry x="224" y="125" width="140" height="30" as="geometry"/>
                </mxCell>
                <mxCell id="101" value="&lt;span style=&quot;color: rgba(0, 0, 0, 0); font-family: monospace; font-size: 0px; text-align: start; background-color: rgb(42, 37, 47);&quot;&gt;%3CmxGraphModel%3E%3Croot%3E%3CmxCell%20id%3D%220%22%2F%3E%3CmxCell%20id%3D%221%22%20parent%3D%220%22%2F%3E%3CmxCell%20id%3D%222%22%20value%3D%22%22%20style%3D%22sketch%3D0%3Baspect%3Dfixed%3Bhtml%3D1%3Bpoints%3D%5B%5D%3Balign%3Dcenter%3Bimage%3BfontSize%3D12%3Bimage%3Dimg%2Flib%2Fmscae%2FEvent_Hub_Clusters.svg%3BlabelBackgroundColor%3D%23171617%3BfillStyle%3Dauto%3BstrokeWidth%3D7%3BfontColor%3D%23f3ecec%3BfillColor%3Dnone%3B%22%20vertex%3D%221%22%20parent%3D%221%22%3E%3CmxGeometry%20x%3D%22-40%22%20y%3D%22120%22%20width%3D%2250%22%20height%3D%2248%22%20as%3D%22geometry%22%2F%3E%3C%2FmxCell%3E%3C%2Froot%3E%3C%2FmxGraphModel%3E&lt;/span&gt;" style="sketch=0;aspect=fixed;html=1;points=[];align=center;image;fontSize=12;image=img/lib/mscae/ResourceGroup.svg;labelBackgroundColor=#171617;fillStyle=auto;strokeWidth=7;fontColor=#f3ecec;fillColor=none;" parent="107" vertex="1">
                    <mxGeometry width="50" height="40" as="geometry"/>
                </mxCell>
                <mxCell id="114" value="" style="group" parent="1" vertex="1" connectable="0">
                    <mxGeometry x="650" y="70" width="531.88" height="190" as="geometry"/>
                </mxCell>
                <mxCell id="115" value="" style="group" parent="114" vertex="1" connectable="0">
                    <mxGeometry width="410" height="190" as="geometry"/>
                </mxCell>
                <mxCell id="116" value="" style="rounded=0;whiteSpace=wrap;html=1;labelBackgroundColor=#171617;fillStyle=auto;strokeWidth=7;fontSize=16;fillColor=#bac8d3;strokeColor=#23445d;" parent="115" vertex="1">
                    <mxGeometry x="16.88" y="10" width="393.12" height="180" as="geometry"/>
                </mxCell>
                <mxCell id="117" value="&lt;span style=&quot;font-size: 16px;&quot;&gt;cosmos-db-rg&lt;/span&gt;" style="text;html=1;strokeColor=none;fillColor=none;align=center;verticalAlign=middle;whiteSpace=wrap;rounded=0;labelBackgroundColor=none;fillStyle=auto;strokeWidth=7;fontFamily=Helvetica;fontSize=12;fontColor=#000000;" parent="115" vertex="1">
                    <mxGeometry x="126.85" y="149" width="173.18" height="30" as="geometry"/>
                </mxCell>
                <mxCell id="119" value="" style="aspect=fixed;html=1;points=[];align=center;image;fontSize=12;image=img/lib/azure2/security/Key_Vaults.svg;rounded=0;labelBackgroundColor=#171617;fillStyle=auto;strokeColor=#23445d;strokeWidth=7;fontFamily=Helvetica;fontColor=#000000;fillColor=#bac8d3;" parent="115" vertex="1">
                    <mxGeometry x="260" y="57" width="68" height="68" as="geometry"/>
                </mxCell>
                <mxCell id="120" value="Cosmos DB" style="text;html=1;strokeColor=none;fillColor=none;align=center;verticalAlign=middle;whiteSpace=wrap;rounded=0;labelBackgroundColor=none;fillStyle=auto;strokeWidth=7;fontFamily=Helvetica;fontSize=16;fontColor=#000000;" parent="115" vertex="1">
                    <mxGeometry x="60" y="119" width="140" height="30" as="geometry"/>
                </mxCell>
                <mxCell id="121" value="Key Vaults" style="text;html=1;strokeColor=none;fillColor=none;align=center;verticalAlign=middle;whiteSpace=wrap;rounded=0;labelBackgroundColor=none;fillStyle=auto;strokeWidth=7;fontFamily=Helvetica;fontSize=16;fontColor=#000000;" parent="115" vertex="1">
                    <mxGeometry x="224" y="125" width="140" height="30" as="geometry"/>
                </mxCell>
                <mxCell id="122" value="&lt;span style=&quot;color: rgba(0, 0, 0, 0); font-family: monospace; font-size: 0px; text-align: start; background-color: rgb(42, 37, 47);&quot;&gt;%3CmxGraphModel%3E%3Croot%3E%3CmxCell%20id%3D%220%22%2F%3E%3CmxCell%20id%3D%221%22%20parent%3D%220%22%2F%3E%3CmxCell%20id%3D%222%22%20value%3D%22%22%20style%3D%22sketch%3D0%3Baspect%3Dfixed%3Bhtml%3D1%3Bpoints%3D%5B%5D%3Balign%3Dcenter%3Bimage%3BfontSize%3D12%3Bimage%3Dimg%2Flib%2Fmscae%2FEvent_Hub_Clusters.svg%3BlabelBackgroundColor%3D%23171617%3BfillStyle%3Dauto%3BstrokeWidth%3D7%3BfontColor%3D%23f3ecec%3BfillColor%3Dnone%3B%22%20vertex%3D%221%22%20parent%3D%221%22%3E%3CmxGeometry%20x%3D%22-40%22%20y%3D%22120%22%20width%3D%2250%22%20height%3D%2248%22%20as%3D%22geometry%22%2F%3E%3C%2FmxCell%3E%3C%2Froot%3E%3C%2FmxGraphModel%3E&lt;/span&gt;" style="sketch=0;aspect=fixed;html=1;points=[];align=center;image;fontSize=12;image=img/lib/mscae/ResourceGroup.svg;labelBackgroundColor=#171617;fillStyle=auto;strokeWidth=7;fontColor=#f3ecec;fillColor=none;" parent="115" vertex="1">
                    <mxGeometry width="50" height="40" as="geometry"/>
                </mxCell>
                <mxCell id="123" value="" style="aspect=fixed;html=1;points=[];align=center;image;fontSize=12;image=img/lib/azure2/databases/Azure_Cosmos_DB.svg;rounded=0;labelBackgroundColor=none;fillStyle=auto;strokeWidth=7;fontFamily=Helvetica;fontColor=#000000;fillColor=none;gradientColor=none;" parent="115" vertex="1">
                    <mxGeometry x="98" y="55" width="64" height="64" as="geometry"/>
                </mxCell>
                <mxCell id="124" value="" style="group" parent="1" vertex="1" connectable="0">
                    <mxGeometry x="50" y="520" width="410" height="190" as="geometry"/>
                </mxCell>
                <mxCell id="125" value="" style="rounded=0;whiteSpace=wrap;html=1;labelBackgroundColor=#171617;fillStyle=auto;strokeWidth=7;fontSize=16;fillColor=#bac8d3;strokeColor=#23445d;" parent="124" vertex="1">
                    <mxGeometry x="16.88" y="10" width="393.12" height="180" as="geometry"/>
                </mxCell>
                <mxCell id="126" value="&lt;span style=&quot;font-size: 16px;&quot;&gt;network-rg&lt;/span&gt;" style="text;html=1;strokeColor=none;fillColor=none;align=center;verticalAlign=middle;whiteSpace=wrap;rounded=0;labelBackgroundColor=none;fillStyle=auto;strokeWidth=7;fontFamily=Helvetica;fontSize=12;fontColor=#000000;" parent="124" vertex="1">
                    <mxGeometry x="126.85" y="149" width="173.18" height="30" as="geometry"/>
                </mxCell>
                <mxCell id="129" value="Virtual Networks" style="text;html=1;strokeColor=none;fillColor=none;align=center;verticalAlign=middle;whiteSpace=wrap;rounded=0;labelBackgroundColor=none;fillStyle=auto;strokeWidth=7;fontFamily=Helvetica;fontSize=16;fontColor=#000000;" parent="124" vertex="1">
                    <mxGeometry x="60" y="119" width="140" height="30" as="geometry"/>
                </mxCell>
                <mxCell id="130" value="NSG" style="text;html=1;strokeColor=none;fillColor=none;align=center;verticalAlign=middle;whiteSpace=wrap;rounded=0;labelBackgroundColor=none;fillStyle=auto;strokeWidth=7;fontFamily=Helvetica;fontSize=16;fontColor=#000000;" parent="124" vertex="1">
                    <mxGeometry x="230" y="125" width="140" height="30" as="geometry"/>
                </mxCell>
                <mxCell id="131" value="&lt;span style=&quot;color: rgba(0, 0, 0, 0); font-family: monospace; font-size: 0px; text-align: start; background-color: rgb(42, 37, 47);&quot;&gt;%3CmxGraphModel%3E%3Croot%3E%3CmxCell%20id%3D%220%22%2F%3E%3CmxCell%20id%3D%221%22%20parent%3D%220%22%2F%3E%3CmxCell%20id%3D%222%22%20value%3D%22%22%20style%3D%22sketch%3D0%3Baspect%3Dfixed%3Bhtml%3D1%3Bpoints%3D%5B%5D%3Balign%3Dcenter%3Bimage%3BfontSize%3D12%3Bimage%3Dimg%2Flib%2Fmscae%2FEvent_Hub_Clusters.svg%3BlabelBackgroundColor%3D%23171617%3BfillStyle%3Dauto%3BstrokeWidth%3D7%3BfontColor%3D%23f3ecec%3BfillColor%3Dnone%3B%22%20vertex%3D%221%22%20parent%3D%221%22%3E%3CmxGeometry%20x%3D%22-40%22%20y%3D%22120%22%20width%3D%2250%22%20height%3D%2248%22%20as%3D%22geometry%22%2F%3E%3C%2FmxCell%3E%3C%2Froot%3E%3C%2FmxGraphModel%3E&lt;/span&gt;" style="sketch=0;aspect=fixed;html=1;points=[];align=center;image;fontSize=12;image=img/lib/mscae/ResourceGroup.svg;labelBackgroundColor=#171617;fillStyle=auto;strokeWidth=7;fontColor=#f3ecec;fillColor=none;" parent="124" vertex="1">
                    <mxGeometry width="50" height="40" as="geometry"/>
                </mxCell>
                <mxCell id="134" value="" style="aspect=fixed;html=1;points=[];align=center;image;fontSize=12;image=img/lib/azure2/networking/Virtual_Networks.svg;rounded=0;labelBackgroundColor=none;fillStyle=auto;strokeWidth=7;fontFamily=Helvetica;fontColor=#000000;fillColor=none;gradientColor=none;" parent="124" vertex="1">
                    <mxGeometry x="94" y="65" width="67" height="40" as="geometry"/>
                </mxCell>
                <mxCell id="135" value="" style="aspect=fixed;html=1;points=[];align=center;image;fontSize=12;image=img/lib/azure2/networking/Network_Security_Groups.svg;rounded=0;labelBackgroundColor=none;fillStyle=auto;strokeWidth=7;fontFamily=Helvetica;fontColor=#000000;fillColor=none;gradientColor=none;" parent="124" vertex="1">
                    <mxGeometry x="272" y="51" width="56.00000000000001" height="68" as="geometry"/>
                </mxCell>
                <mxCell id="137" value="Core Services" style="text;html=1;strokeColor=none;fillColor=none;align=center;verticalAlign=middle;whiteSpace=wrap;rounded=0;labelBackgroundColor=none;fillStyle=auto;strokeWidth=7;fontFamily=Helvetica;fontSize=30;fontColor=#000000;rotation=270;movable=0;resizable=0;rotatable=0;deletable=0;editable=0;connectable=0;" parent="1" vertex="1">
                    <mxGeometry x="-725" y="365" width="200" height="30" as="geometry"/>
                </mxCell>
                <mxCell id="138" value="" style="group" parent="1" vertex="1" connectable="0">
                    <mxGeometry x="520" y="355" width="260" height="355" as="geometry"/>
                </mxCell>
                <mxCell id="139" value="" style="rounded=0;whiteSpace=wrap;html=1;labelBackgroundColor=#171617;fillStyle=auto;strokeWidth=7;fontSize=16;fillColor=#bac8d3;strokeColor=#23445d;" parent="138" vertex="1">
                    <mxGeometry x="10.704390243902438" y="18.68421052631579" width="249.29560975609758" height="336.3157894736842" as="geometry"/>
                </mxCell>
                <mxCell id="143" value="&lt;span style=&quot;color: rgba(0, 0, 0, 0); font-family: monospace; font-size: 0px; text-align: start; background-color: rgb(42, 37, 47);&quot;&gt;%3CmxGraphModel%3E%3Croot%3E%3CmxCell%20id%3D%220%22%2F%3E%3CmxCell%20id%3D%221%22%20parent%3D%220%22%2F%3E%3CmxCell%20id%3D%222%22%20value%3D%22%22%20style%3D%22sketch%3D0%3Baspect%3Dfixed%3Bhtml%3D1%3Bpoints%3D%5B%5D%3Balign%3Dcenter%3Bimage%3BfontSize%3D12%3Bimage%3Dimg%2Flib%2Fmscae%2FEvent_Hub_Clusters.svg%3BlabelBackgroundColor%3D%23171617%3BfillStyle%3Dauto%3BstrokeWidth%3D7%3BfontColor%3D%23f3ecec%3BfillColor%3Dnone%3B%22%20vertex%3D%221%22%20parent%3D%221%22%3E%3CmxGeometry%20x%3D%22-40%22%20y%3D%22120%22%20width%3D%2250%22%20height%3D%2248%22%20as%3D%22geometry%22%2F%3E%3C%2FmxCell%3E%3C%2Froot%3E%3C%2FmxGraphModel%3E&lt;/span&gt;" style="sketch=0;aspect=fixed;html=1;points=[];align=center;image;fontSize=12;image=img/lib/mscae/ResourceGroup.svg;labelBackgroundColor=#171617;fillStyle=auto;strokeWidth=7;fontColor=#f3ecec;fillColor=none;" parent="138" vertex="1">
                    <mxGeometry x="-10" width="50" height="40" as="geometry"/>
                </mxCell>
                <mxCell id="149" value="" style="aspect=fixed;html=1;points=[];align=center;image;fontSize=12;image=img/lib/azure2/ai_machine_learning/Machine_Learning.svg;rounded=0;labelBackgroundColor=none;fillStyle=auto;strokeWidth=7;fontFamily=Helvetica;fontColor=#000000;fillColor=none;gradientColor=none;" parent="138" vertex="1">
                    <mxGeometry x="103.35" y="58" width="64" height="68" as="geometry"/>
                </mxCell>
                <mxCell id="150" value="" style="aspect=fixed;html=1;points=[];align=center;image;fontSize=12;image=img/lib/azure2/ai_machine_learning/Machine_Learning.svg;rounded=0;labelBackgroundColor=none;fillStyle=auto;strokeWidth=7;fontFamily=Helvetica;fontColor=#000000;fillColor=none;gradientColor=none;" parent="138" vertex="1">
                    <mxGeometry x="103.35000000000002" y="190" width="64" height="68" as="geometry"/>
                </mxCell>
                <mxCell id="151" value="Feature Store" style="text;html=1;strokeColor=none;fillColor=none;align=center;verticalAlign=middle;whiteSpace=wrap;rounded=0;labelBackgroundColor=none;fillStyle=auto;strokeWidth=7;fontFamily=Helvetica;fontSize=16;fontColor=#000000;" parent="138" vertex="1">
                    <mxGeometry x="65.35000000000002" y="135" width="140" height="30" as="geometry"/>
                </mxCell>
                <mxCell id="152" value="Model Registry" style="text;html=1;strokeColor=none;fillColor=none;align=center;verticalAlign=middle;whiteSpace=wrap;rounded=0;labelBackgroundColor=none;fillStyle=auto;strokeWidth=7;fontFamily=Helvetica;fontSize=16;fontColor=#000000;" parent="138" vertex="1">
                    <mxGeometry x="65.35000000000002" y="270" width="140" height="30" as="geometry"/>
                </mxCell>
                <mxCell id="225" value="&lt;span style=&quot;font-size: 16px;&quot;&gt;ml-infra-rg&lt;/span&gt;" style="text;html=1;strokeColor=none;fillColor=none;align=center;verticalAlign=middle;whiteSpace=wrap;rounded=0;labelBackgroundColor=none;fillStyle=auto;strokeWidth=7;fontFamily=Helvetica;fontSize=12;fontColor=#000000;" vertex="1" parent="138">
                    <mxGeometry x="48.75999999999999" y="314" width="173.18" height="30" as="geometry"/>
                </mxCell>
                <mxCell id="153" value="" style="sketch=0;aspect=fixed;html=1;points=[];align=center;image;fontSize=12;image=img/lib/mscae/Key.svg;rounded=0;labelBackgroundColor=none;fillStyle=auto;strokeWidth=7;fontFamily=Helvetica;fontColor=#000000;fillColor=none;gradientColor=none;" parent="1" vertex="1">
                    <mxGeometry x="-655" y="670" width="60" height="96.77" as="geometry"/>
                </mxCell>
                <mxCell id="155" value="Data Applications" style="text;html=1;strokeColor=none;fillColor=none;align=center;verticalAlign=middle;whiteSpace=wrap;rounded=0;labelBackgroundColor=none;fillStyle=auto;strokeWidth=7;fontFamily=Helvetica;fontSize=30;fontColor=#000000;rotation=270;movable=0;resizable=0;rotatable=0;deletable=0;editable=0;connectable=0;" parent="1" vertex="1">
                    <mxGeometry x="-745" y="-295" width="250" height="30" as="geometry"/>
                </mxCell>
                <mxCell id="176" value="" style="group" parent="1" vertex="1" connectable="0">
                    <mxGeometry x="-360" y="-400" width="503.75" height="220" as="geometry"/>
                </mxCell>
                <mxCell id="156" value="" style="rounded=0;whiteSpace=wrap;html=1;labelBackgroundColor=none;fillStyle=auto;strokeWidth=7;fontFamily=Helvetica;fontSize=30;fontColor=#333333;fillColor=#f5f5f5;strokeColor=#666666;" parent="176" vertex="1">
                    <mxGeometry x="73.75" width="430" height="180" as="geometry"/>
                </mxCell>
                <mxCell id="157" value="" style="rounded=0;whiteSpace=wrap;html=1;labelBackgroundColor=none;fillStyle=auto;strokeWidth=7;fontFamily=Helvetica;fontSize=30;fontColor=#333333;fillColor=#f5f5f5;strokeColor=#666666;" parent="176" vertex="1">
                    <mxGeometry x="30" y="40" width="430" height="180" as="geometry"/>
                </mxCell>
                <mxCell id="160" value="&lt;span style=&quot;color: rgba(0, 0, 0, 0); font-family: monospace; font-size: 0px; text-align: start; background-color: rgb(42, 37, 47);&quot;&gt;%3CmxGraphModel%3E%3Croot%3E%3CmxCell%20id%3D%220%22%2F%3E%3CmxCell%20id%3D%221%22%20parent%3D%220%22%2F%3E%3CmxCell%20id%3D%222%22%20value%3D%22%22%20style%3D%22sketch%3D0%3Baspect%3Dfixed%3Bhtml%3D1%3Bpoints%3D%5B%5D%3Balign%3Dcenter%3Bimage%3BfontSize%3D12%3Bimage%3Dimg%2Flib%2Fmscae%2FEvent_Hub_Clusters.svg%3BlabelBackgroundColor%3D%23171617%3BfillStyle%3Dauto%3BstrokeWidth%3D7%3BfontColor%3D%23f3ecec%3BfillColor%3Dnone%3B%22%20vertex%3D%221%22%20parent%3D%221%22%3E%3CmxGeometry%20x%3D%22-40%22%20y%3D%22120%22%20width%3D%2250%22%20height%3D%2248%22%20as%3D%22geometry%22%2F%3E%3C%2FmxCell%3E%3C%2Froot%3E%3C%2FmxGraphModel%3E&lt;/span&gt;" style="sketch=0;aspect=fixed;html=1;points=[];align=center;image;fontSize=12;image=img/lib/mscae/ResourceGroup.svg;labelBackgroundColor=#171617;fillStyle=auto;strokeWidth=7;fontColor=#f3ecec;fillColor=none;" parent="176" vertex="1">
                    <mxGeometry y="20" width="50" height="40" as="geometry"/>
                </mxCell>
                <mxCell id="163" value="" style="aspect=fixed;html=1;points=[];align=center;image;fontSize=12;image=img/lib/azure2/devops/Application_Insights.svg;rounded=0;labelBackgroundColor=none;fillStyle=auto;strokeWidth=7;fontFamily=Helvetica;fontColor=#000000;fillColor=none;gradientColor=none;" parent="176" vertex="1">
                    <mxGeometry x="60" y="95.16000000000003" width="34" height="48.68" as="geometry"/>
                </mxCell>
                <mxCell id="164" value="" style="aspect=fixed;html=1;points=[];align=center;image;fontSize=12;image=img/lib/azure2/databases/Data_Factory.svg;rounded=0;labelBackgroundColor=none;fillStyle=auto;strokeWidth=7;fontFamily=Helvetica;fontColor=#000000;fillColor=none;gradientColor=none;" parent="176" vertex="1">
                    <mxGeometry x="148.37" y="91" width="57" height="57" as="geometry"/>
                </mxCell>
                <mxCell id="165" value="" style="aspect=fixed;html=1;points=[];align=center;image;fontSize=12;image=img/lib/azure2/security/Key_Vaults.svg;rounded=0;labelBackgroundColor=none;fillStyle=auto;strokeWidth=7;fontFamily=Helvetica;fontColor=#000000;fillColor=none;gradientColor=none;" parent="176" vertex="1">
                    <mxGeometry x="260" y="88" width="63" height="63" as="geometry"/>
                </mxCell>
                <mxCell id="166" value="" style="aspect=fixed;html=1;points=[];align=center;image;fontSize=12;image=img/lib/azure2/iot/Event_Hubs.svg;rounded=0;labelBackgroundColor=none;fillStyle=auto;strokeWidth=7;fontFamily=Helvetica;fontColor=#000000;fillColor=none;gradientColor=none;" parent="176" vertex="1">
                    <mxGeometry x="380" y="91.82" width="57" height="51.04" as="geometry"/>
                </mxCell>
                <mxCell id="167" value="&lt;font color=&quot;#050505&quot; style=&quot;font-size: 16px;&quot;&gt;App Insights&lt;/font&gt;" style="text;html=1;strokeColor=none;fillColor=none;align=center;verticalAlign=middle;whiteSpace=wrap;rounded=0;labelBackgroundColor=none;fillStyle=auto;strokeWidth=7;fontFamily=Helvetica;fontSize=12;fontColor=#f3ecec;" parent="176" vertex="1">
                    <mxGeometry y="143.84000000000003" width="173.18" height="30" as="geometry"/>
                </mxCell>
                <mxCell id="169" value="&lt;font color=&quot;#050505&quot; style=&quot;font-size: 16px;&quot;&gt;ADF&lt;/font&gt;" style="text;html=1;strokeColor=none;fillColor=none;align=center;verticalAlign=middle;whiteSpace=wrap;rounded=0;labelBackgroundColor=none;fillStyle=auto;strokeWidth=7;fontFamily=Helvetica;fontSize=12;fontColor=#f3ecec;" parent="176" vertex="1">
                    <mxGeometry x="86.82" y="143.84000000000003" width="173.18" height="30" as="geometry"/>
                </mxCell>
                <mxCell id="170" value="&lt;font color=&quot;#050505&quot; style=&quot;font-size: 16px;&quot;&gt;Key Vaults&lt;/font&gt;" style="text;html=1;strokeColor=none;fillColor=none;align=center;verticalAlign=middle;whiteSpace=wrap;rounded=0;labelBackgroundColor=none;fillStyle=auto;strokeWidth=7;fontFamily=Helvetica;fontSize=12;fontColor=#f3ecec;" parent="176" vertex="1">
                    <mxGeometry x="206.82" y="143.84000000000003" width="173.18" height="30" as="geometry"/>
                </mxCell>
                <mxCell id="171" value="&lt;font color=&quot;#050505&quot; style=&quot;font-size: 16px;&quot;&gt;Event Hubs&lt;/font&gt;" style="text;html=1;strokeColor=none;fillColor=none;align=center;verticalAlign=middle;whiteSpace=wrap;rounded=0;labelBackgroundColor=none;fillStyle=auto;strokeWidth=7;fontFamily=Helvetica;fontSize=12;fontColor=#f3ecec;" parent="176" vertex="1">
                    <mxGeometry x="321.90999999999997" y="143.84000000000003" width="173.18" height="30" as="geometry"/>
                </mxCell>
                <mxCell id="172" value="&lt;font color=&quot;#050505&quot; style=&quot;font-size: 16px;&quot;&gt;data-application-rg&lt;/font&gt;" style="text;html=1;strokeColor=none;fillColor=none;align=center;verticalAlign=middle;whiteSpace=wrap;rounded=0;labelBackgroundColor=none;fillStyle=auto;strokeWidth=7;fontFamily=Helvetica;fontSize=12;fontColor=#f3ecec;" parent="176" vertex="1">
                    <mxGeometry x="158.41" y="180.00000000000006" width="173.18" height="30" as="geometry"/>
                </mxCell>
                <mxCell id="217" value="" style="group" parent="1" vertex="1" connectable="0">
                    <mxGeometry x="513.61" y="-400" width="580.14" height="220" as="geometry"/>
                </mxCell>
                <mxCell id="158" value="" style="rounded=0;whiteSpace=wrap;html=1;labelBackgroundColor=none;fillStyle=auto;strokeWidth=7;fontFamily=Helvetica;fontSize=30;fontColor=#333333;fillColor=#f5f5f5;strokeColor=#666666;" parent="217" vertex="1">
                    <mxGeometry x="76.38999999999999" width="503.75" height="180" as="geometry"/>
                </mxCell>
                <mxCell id="159" value="" style="rounded=0;whiteSpace=wrap;html=1;labelBackgroundColor=none;fillStyle=auto;strokeWidth=7;fontFamily=Helvetica;fontSize=30;fontColor=#333333;fillColor=#f5f5f5;strokeColor=#666666;" parent="217" vertex="1">
                    <mxGeometry x="36.389999999999986" y="40" width="500" height="180" as="geometry"/>
                </mxCell>
                <mxCell id="162" value="&lt;span style=&quot;color: rgba(0, 0, 0, 0); font-family: monospace; font-size: 0px; text-align: start; background-color: rgb(42, 37, 47);&quot;&gt;%3CmxGraphModel%3E%3Croot%3E%3CmxCell%20id%3D%220%22%2F%3E%3CmxCell%20id%3D%221%22%20parent%3D%220%22%2F%3E%3CmxCell%20id%3D%222%22%20value%3D%22%22%20style%3D%22sketch%3D0%3Baspect%3Dfixed%3Bhtml%3D1%3Bpoints%3D%5B%5D%3Balign%3Dcenter%3Bimage%3BfontSize%3D12%3Bimage%3Dimg%2Flib%2Fmscae%2FEvent_Hub_Clusters.svg%3BlabelBackgroundColor%3D%23171617%3BfillStyle%3Dauto%3BstrokeWidth%3D7%3BfontColor%3D%23f3ecec%3BfillColor%3Dnone%3B%22%20vertex%3D%221%22%20parent%3D%221%22%3E%3CmxGeometry%20x%3D%22-40%22%20y%3D%22120%22%20width%3D%2250%22%20height%3D%2248%22%20as%3D%22geometry%22%2F%3E%3C%2FmxCell%3E%3C%2Froot%3E%3C%2FmxGraphModel%3E&lt;/span&gt;" style="sketch=0;aspect=fixed;html=1;points=[];align=center;image;fontSize=12;image=img/lib/mscae/ResourceGroup.svg;labelBackgroundColor=#171617;fillStyle=auto;strokeWidth=7;fontColor=#f3ecec;fillColor=none;" parent="217" vertex="1">
                    <mxGeometry x="16.389999999999986" y="20" width="50" height="40" as="geometry"/>
                </mxCell>
                <mxCell id="189" value="" style="aspect=fixed;html=1;points=[];align=center;image;fontSize=12;image=img/lib/azure2/devops/Application_Insights.svg;rounded=0;labelBackgroundColor=none;fillStyle=auto;strokeWidth=7;fontFamily=Helvetica;fontColor=#000000;fillColor=none;gradientColor=none;" parent="217" vertex="1">
                    <mxGeometry x="66.38999999999999" y="87.16000000000003" width="34" height="48.68" as="geometry"/>
                </mxCell>
                <mxCell id="190" value="" style="aspect=fixed;html=1;points=[];align=center;image;fontSize=12;image=img/lib/azure2/databases/Data_Factory.svg;rounded=0;labelBackgroundColor=none;fillStyle=auto;strokeWidth=7;fontFamily=Helvetica;fontColor=#000000;fillColor=none;gradientColor=none;" parent="217" vertex="1">
                    <mxGeometry x="156.39" y="83" width="57" height="57" as="geometry"/>
                </mxCell>
                <mxCell id="191" value="" style="aspect=fixed;html=1;points=[];align=center;image;fontSize=12;image=img/lib/azure2/security/Key_Vaults.svg;rounded=0;labelBackgroundColor=none;fillStyle=auto;strokeWidth=7;fontFamily=Helvetica;fontColor=#000000;fillColor=none;gradientColor=none;" parent="217" vertex="1">
                    <mxGeometry x="254.89" y="81.75" width="63" height="63" as="geometry"/>
                </mxCell>
                <mxCell id="192" value="&lt;font color=&quot;#050505&quot; style=&quot;font-size: 16px;&quot;&gt;App Insights&lt;/font&gt;" style="text;html=1;strokeColor=none;fillColor=none;align=center;verticalAlign=middle;whiteSpace=wrap;rounded=0;labelBackgroundColor=none;fillStyle=auto;strokeWidth=7;fontFamily=Helvetica;fontSize=12;fontColor=#f3ecec;" parent="217" vertex="1">
                    <mxGeometry y="140.00000000000006" width="173.18" height="30" as="geometry"/>
                </mxCell>
                <mxCell id="193" value="&lt;font color=&quot;#050505&quot; style=&quot;font-size: 16px;&quot;&gt;ADF&lt;/font&gt;" style="text;html=1;strokeColor=none;fillColor=none;align=center;verticalAlign=middle;whiteSpace=wrap;rounded=0;labelBackgroundColor=none;fillStyle=auto;strokeWidth=7;fontFamily=Helvetica;fontSize=12;fontColor=#f3ecec;" parent="217" vertex="1">
                    <mxGeometry x="100.38999999999987" y="141.25000000000006" width="173.18" height="30" as="geometry"/>
                </mxCell>
                <mxCell id="194" value="&lt;font color=&quot;#050505&quot; style=&quot;font-size: 16px;&quot;&gt;Key Vaults&lt;/font&gt;" style="text;html=1;strokeColor=none;fillColor=none;align=center;verticalAlign=middle;whiteSpace=wrap;rounded=0;labelBackgroundColor=none;fillStyle=auto;strokeWidth=7;fontFamily=Helvetica;fontSize=12;fontColor=#f3ecec;" parent="217" vertex="1">
                    <mxGeometry x="199.79999999999995" y="140.00000000000006" width="173.18" height="30" as="geometry"/>
                </mxCell>
                <mxCell id="195" value="" style="aspect=fixed;html=1;points=[];align=center;image;fontSize=12;image=img/lib/azure2/ai_machine_learning/Machine_Learning.svg;rounded=0;labelBackgroundColor=none;fillStyle=auto;strokeWidth=7;fontFamily=Helvetica;fontColor=#000000;fillColor=none;gradientColor=none;" parent="217" vertex="1">
                    <mxGeometry x="356.39" y="81.75" width="56" height="59.5" as="geometry"/>
                </mxCell>
                <mxCell id="196" value="&lt;font color=&quot;#050505&quot; style=&quot;font-size: 16px;&quot;&gt;Azure ML&lt;/font&gt;" style="text;html=1;strokeColor=none;fillColor=none;align=center;verticalAlign=middle;whiteSpace=wrap;rounded=0;labelBackgroundColor=none;fillStyle=auto;strokeWidth=7;fontFamily=Helvetica;fontSize=12;fontColor=#f3ecec;" parent="217" vertex="1">
                    <mxGeometry x="297.79999999999995" y="140.00000000000006" width="173.18" height="30" as="geometry"/>
                </mxCell>
                <mxCell id="197" value="" style="aspect=fixed;html=1;points=[];align=center;image;fontSize=12;image=img/lib/azure2/containers/Container_Registries.svg;rounded=0;labelBackgroundColor=none;fillStyle=auto;strokeWidth=7;fontFamily=Helvetica;fontColor=#000000;fillColor=none;gradientColor=none;" parent="217" vertex="1">
                    <mxGeometry x="446.39" y="80.25" width="68" height="61" as="geometry"/>
                </mxCell>
                <mxCell id="198" value="&lt;font color=&quot;#050505&quot; style=&quot;font-size: 16px;&quot;&gt;Container &lt;br&gt;Registry&lt;/font&gt;" style="text;html=1;strokeColor=none;fillColor=none;align=center;verticalAlign=middle;whiteSpace=wrap;rounded=0;labelBackgroundColor=none;fillStyle=auto;strokeWidth=7;fontFamily=Helvetica;fontSize=12;fontColor=#f3ecec;" parent="217" vertex="1">
                    <mxGeometry x="393.80000000000007" y="144.75000000000006" width="173.18" height="30" as="geometry"/>
                </mxCell>
                <mxCell id="212" value="&lt;font color=&quot;#050505&quot; style=&quot;font-size: 16px;&quot;&gt;data-application-rg (ML)&lt;/font&gt;" style="text;html=1;strokeColor=none;fillColor=none;align=center;verticalAlign=middle;whiteSpace=wrap;rounded=0;labelBackgroundColor=none;fillStyle=auto;strokeWidth=7;fontFamily=Helvetica;fontSize=12;fontColor=#f3ecec;" parent="217" vertex="1">
                    <mxGeometry x="199.80000000000007" y="180.00000000000006" width="173.18" height="30" as="geometry"/>
                </mxCell>
                <mxCell id="219" value="" style="rounded=0;whiteSpace=wrap;html=1;labelBackgroundColor=none;fillStyle=auto;strokeWidth=7;fontFamily=Helvetica;fontSize=16;fillColor=#f8cecc;strokeColor=#b85450;movable=1;resizable=1;rotatable=1;deletable=1;editable=1;connectable=1;" parent="1" vertex="1">
                    <mxGeometry x="-660" y="-970" width="1930" height="440" as="geometry"/>
                </mxCell>
                <mxCell id="220" value="Visualisation Layer" style="text;html=1;strokeColor=none;fillColor=none;align=center;verticalAlign=middle;whiteSpace=wrap;rounded=0;labelBackgroundColor=none;fillStyle=auto;strokeWidth=7;fontFamily=Helvetica;fontSize=30;fontColor=#000000;rotation=270;movable=1;resizable=1;rotatable=1;deletable=1;editable=1;connectable=1;" parent="1" vertex="1">
                    <mxGeometry x="-760" y="-765" width="270" height="30" as="geometry"/>
                </mxCell>
                <mxCell id="222" value="&lt;font style=&quot;font-size: 34px;&quot;&gt;Visualisation and Reporting Tools&lt;/font&gt;" style="text;html=1;strokeColor=none;fillColor=none;align=center;verticalAlign=middle;whiteSpace=wrap;rounded=0;labelBackgroundColor=none;fillStyle=auto;strokeWidth=7;fontFamily=Helvetica;fontSize=30;fontColor=#000000;" parent="1" vertex="1">
                    <mxGeometry x="29.429999999999993" y="-670" width="551.15" height="30" as="geometry"/>
                </mxCell>
                <mxCell id="224" value="&lt;font style=&quot;font-size: 34px;&quot;&gt;Power BI&lt;/font&gt;" style="text;html=1;strokeColor=none;fillColor=none;align=center;verticalAlign=middle;whiteSpace=wrap;rounded=0;labelBackgroundColor=none;fillStyle=auto;strokeWidth=7;fontFamily=Helvetica;fontSize=30;fontColor=#000000;" parent="1" vertex="1">
                    <mxGeometry x="29.430000000000007" y="-730" width="551.15" height="30" as="geometry"/>
                </mxCell>
                <mxCell id="227" value="" style="group" vertex="1" connectable="0" parent="1">
                    <mxGeometry x="833.75" y="355" width="260" height="355" as="geometry"/>
                </mxCell>
                <mxCell id="228" value="" style="rounded=0;whiteSpace=wrap;html=1;labelBackgroundColor=#171617;fillStyle=auto;strokeWidth=7;fontSize=16;fillColor=#bac8d3;strokeColor=#23445d;" vertex="1" parent="227">
                    <mxGeometry x="10.704390243902438" y="18.68421052631579" width="249.29560975609758" height="336.3157894736842" as="geometry"/>
                </mxCell>
                <mxCell id="232" value="Infra SDK" style="text;html=1;strokeColor=none;fillColor=none;align=center;verticalAlign=middle;whiteSpace=wrap;rounded=0;labelBackgroundColor=none;fillStyle=auto;strokeWidth=7;fontFamily=Helvetica;fontSize=16;fontColor=#000000;" vertex="1" parent="227">
                    <mxGeometry x="59.99999999999999" y="140" width="140" height="25" as="geometry"/>
                </mxCell>
                <mxCell id="233" value="DQ Framework" style="text;html=1;strokeColor=none;fillColor=none;align=center;verticalAlign=middle;whiteSpace=wrap;rounded=0;labelBackgroundColor=none;fillStyle=auto;strokeWidth=7;fontFamily=Helvetica;fontSize=16;fontColor=#000000;" vertex="1" parent="227">
                    <mxGeometry x="65.35000000000002" y="284" width="140" height="30" as="geometry"/>
                </mxCell>
                <mxCell id="234" value="&lt;span style=&quot;font-size: 16px;&quot;&gt;common-sdks&lt;/span&gt;" style="text;html=1;strokeColor=none;fillColor=none;align=center;verticalAlign=middle;whiteSpace=wrap;rounded=0;labelBackgroundColor=none;fillStyle=auto;strokeWidth=7;fontFamily=Helvetica;fontSize=12;fontColor=#000000;" vertex="1" parent="227">
                    <mxGeometry x="48.75999999999999" y="314" width="173.18" height="30" as="geometry"/>
                </mxCell>
                <mxCell id="270" value="" style="verticalLabelPosition=bottom;html=1;verticalAlign=top;align=center;strokeColor=none;fillColor=#00BEF2;shape=mxgraph.azure.github_code;pointerEvents=1;" vertex="1" parent="227">
                    <mxGeometry x="77.74000000000001" y="37" width="104.52" height="103" as="geometry"/>
                </mxCell>
                <mxCell id="273" value="" style="verticalLabelPosition=bottom;html=1;verticalAlign=top;align=center;strokeColor=none;fillColor=#00BEF2;shape=mxgraph.azure.github_code;pointerEvents=1;" vertex="1" parent="227">
                    <mxGeometry x="77.74000000000004" y="181" width="104.52" height="103" as="geometry"/>
                </mxCell>
                <mxCell id="274" value="" style="aspect=fixed;html=1;points=[];align=center;image;fontSize=12;image=img/lib/azure2/analytics/Azure_Workbooks.svg;" vertex="1" parent="1">
                    <mxGeometry x="236" y="-900" width="138" height="138" as="geometry"/>
                </mxCell>
            </root>
        </mxGraphModel>
    </diagram>
</mxfile>